<svg xmlns="http://www.w3.org/2000/svg" width="256" height="256" viewBox="0 0 256 256">
  <rect x="8" y="8" width="240" height="240" rx="48" fill="#1b1d23"/>
  <g>
    <rect x="12" y="60" width="40" height="40" rx="8" fill="#4cc38a"/>
    <rect x="60" y="60" width="40" height="40" rx="8" fill="#3a3f4b"/>
    <rect x="108" y="60" width="40" height="40" rx="8" fill="#4cc38a"/>
    <rect x="156" y="60" width="40" height="40" rx="8" fill="#3a3f4b"/>
    <rect x="204" y="60" width="40" height="40" rx="8" fill="#3a3f4b"/>
    <rect x="12" y="108" width="40" height="40" rx="8" fill="#3a3f4b"/>
    <rect x="60" y="108" width="40" height="40" rx="8" fill="#e5c07b"/>
    <rect x="108" y="108" width="40" height="40" rx="8" fill="#3a3f4b"/>
    <rect x="156" y="108" width="40" height="40" rx="8" fill="#3a3f4b"/>
    <rect x="204" y="108" width="40" height="40" rx="8" fill="#4cc38a"/>
    <rect x="12" y="156" width="40" height="40" rx="8" fill="#3a3f4b"/>
    <rect x="60" y="156" width="40" height="40" rx="8" fill="#3a3f4b"/>
    <rect x="108" y="156" width="40" height="40" rx="8" fill="#3a3f4b"/>
    <rect x="156" y="156" width="40" height="40" rx="8" fill="#3a3f4b"/>
    <rect x="204" y="156" width="40" height="40" rx="8" fill="#3a3f4b"/>
  </g>
</svg>
